PathFileType  4	(X/Y/Z) /dataNAS/people/anoopai/OpenCap/opencap-core/Examples/Data/9a8302fa-da69-4037-8ff7-a272adde5208/MarkerData/PreAugmentation
DataRate	CameraRate	NumFrames	NumMarkers	Units	OrigDataRate	OrigDataStartFrame	OrigNumFrames
60.0	60.0	15	20	m	60.0	26	50
Frame#	Time	Neck			RShoulder			RElbow			RWrist			LShoulder			LElbow			LWrist			midHip			RHip			RKnee			RAnkle			LHip			LKnee			LAnkle			LBigToe			LSmallToe			LHeel			RBigToe			RSmallToe			RHeel			
		X1	Y1	Z1	X2	Y2	Z2	X3	Y3	Z3	X4	Y4	Z4	X5	Y5	Z5	X6	Y6	Z6	X7	Y7	Z7	X8	Y8	Z8	X9	Y9	Z9	X10	Y10	Z10	X11	Y11	Z11	X12	Y12	Z12	X13	Y13	Z13	X14	Y14	Z14	X15	Y15	Z15	X16	Y16	Z16	X17	Y17	Z17	X18	Y18	Z18	X19	Y19	Z19	X20	Y20	Z20	

26	0.4166667	0.3740000	1.1287400	-0.1471600	0.3885700	1.1325600	0.0358000	0.4763200	0.9242300	0.1851000	0.5905000	0.7547100	0.3567200	0.3701800	1.1230300	-0.3318900	0.4635200	0.9390600	-0.4941200	0.5608000	0.7596500	-0.6642500	0.3871800	0.5806800	-0.1311300	0.4050700	0.5863000	-0.0094600	0.3068700	0.2005300	0.0064000	0.2601500	-0.1819900	0.0229000	0.3751900	0.5756600	-0.2536600	0.2818800	0.2022700	-0.2549200	0.2302400	-0.1800100	-0.2772800	0.4070400	-0.2397700	-0.3376100	0.4017500	-0.2388100	-0.3363400	0.1939300	-0.2136100	-0.2638500	0.4450100	-0.2398900	0.0437000	0.4411400	-0.2377200	0.0447400	0.2328600	-0.2108000	0.0254600
27	0.4333333	0.3737600	1.1288500	-0.1471100	0.3882400	1.1327500	0.0358700	0.4760200	0.9246000	0.1851600	0.5903200	0.7548700	0.3569900	0.3699900	1.1231600	-0.3318400	0.4634500	0.9392000	-0.4940200	0.5609700	0.7595900	-0.6644200	0.3871300	0.5809200	-0.1312000	0.4051100	0.5865000	-0.0096900	0.3069900	0.2007700	0.0062600	0.2602000	-0.1819700	0.0228500	0.3751400	0.5758100	-0.2536600	0.2820000	0.2024600	-0.2548600	0.2302400	-0.1802000	-0.2773100	0.4068600	-0.2398800	-0.3374800	0.4015100	-0.2389100	-0.3361800	0.1941700	-0.2137200	-0.2640900	0.4449700	-0.2398300	0.0438300	0.4410500	-0.2376400	0.0448900	0.2328700	-0.2108800	0.0253800
28	0.4500000	0.3736300	1.1289500	-0.1470600	0.3881100	1.1327900	0.0358700	0.4758700	0.9246600	0.1852800	0.5903500	0.7547900	0.3571600	0.3698300	1.1233000	-0.3317500	0.4634200	0.9392700	-0.4940000	0.5611600	0.7595300	-0.6645800	0.3870500	0.5809600	-0.1312300	0.4050200	0.5865300	-0.0097400	0.3071300	0.2009900	0.0060800	0.2602800	-0.1819500	0.0228000	0.3751000	0.5758300	-0.2536600	0.2821000	0.2023800	-0.2547900	0.2302800	-0.1803500	-0.2773700	0.4066200	-0.2399300	-0.3373400	0.4012400	-0.2389500	-0.3360300	0.1941700	-0.2138600	-0.2641700	0.4449500	-0.2397600	0.0439800	0.4410000	-0.2375800	0.0450500	0.2331500	-0.2108500	0.0251900
29	0.4666667	0.3735700	1.1289700	-0.1470000	0.3880600	1.1327700	0.0359100	0.4758300	0.9246300	0.1854000	0.5903600	0.7546700	0.3572600	0.3697600	1.1234000	-0.3316700	0.4633600	0.9393300	-0.4940100	0.5613400	0.7594200	-0.6647100	0.3869900	0.5809000	-0.1312800	0.4049700	0.5864300	-0.0098100	0.3072500	0.2012500	0.0059600	0.2603600	-0.1819100	0.0228000	0.3750500	0.5757500	-0.2536800	0.2820900	0.2022700	-0.2547600	0.2303400	-0.1804600	-0.2774300	0.4064500	-0.2399700	-0.3372000	0.4010200	-0.2389800	-0.3358800	0.1941600	-0.2140000	-0.2642200	0.4449500	-0.2397700	0.0441000	0.4409800	-0.2375800	0.0451900	0.2334000	-0.2108300	0.0250700
30	0.4833333	0.3735900	1.1289100	-0.1469600	0.3880900	1.1326200	0.0358300	0.4758500	0.9246100	0.1855500	0.5903900	0.7545900	0.3573600	0.3697800	1.1234900	-0.3316500	0.4633300	0.9393200	-0.4940600	0.5614800	0.7593500	-0.6648100	0.3869400	0.5807600	-0.1313500	0.4049300	0.5862500	-0.0099200	0.3073200	0.2015100	0.0059200	0.2604900	-0.1819700	0.0227800	0.3749700	0.5757300	-0.2537100	0.2819700	0.2023300	-0.2547900	0.2303900	-0.1804900	-0.2774900	0.4062200	-0.2399900	-0.3371300	0.4007900	-0.2389700	-0.3357900	0.1941800	-0.2141100	-0.2642700	0.4449100	-0.2398000	0.0442100	0.4409000	-0.2375900	0.0453100	0.2335100	-0.2107300	0.0252700
31	0.5000000	0.3736600	1.1288400	-0.1469100	0.3881900	1.1325300	0.0359500	0.4759300	0.9245600	0.1856800	0.5904200	0.7544900	0.3573900	0.3699000	1.1234700	-0.3316200	0.4633000	0.9393000	-0.4942200	0.5615900	0.7592500	-0.6648700	0.3868900	0.5805600	-0.1313700	0.4049000	0.5860100	-0.0099300	0.3073800	0.2016300	0.0059100	0.2605800	-0.1819900	0.0228200	0.3749600	0.5755700	-0.2537200	0.2818700	0.2021800	-0.2548200	0.2304400	-0.1804900	-0.2775300	0.4061200	-0.2399900	-0.3370500	0.4006700	-0.2389700	-0.3357100	0.1941800	-0.2141200	-0.2643600	0.4449200	-0.2398300	0.0443100	0.4409000	-0.2376100	0.0454100	0.2336200	-0.2107400	0.0253300
32	0.5166667	0.3738100	1.1287700	-0.1469000	0.3882700	1.1324000	0.0359900	0.4760700	0.9244200	0.1857800	0.5904700	0.7544400	0.3574000	0.3700700	1.1234500	-0.3316700	0.4632200	0.9393100	-0.4944000	0.5616600	0.7591500	-0.6648900	0.3869000	0.5804000	-0.1313900	0.4048600	0.5857900	-0.0099900	0.3074300	0.2017300	0.0060000	0.2606500	-0.1820100	0.0228700	0.3749500	0.5754600	-0.2537400	0.2817600	0.2020400	-0.2548700	0.2304700	-0.1804700	-0.2775400	0.4060400	-0.2400100	-0.3370100	0.4005800	-0.2389900	-0.3356700	0.1942200	-0.2141100	-0.2644200	0.4449300	-0.2398600	0.0443900	0.4409200	-0.2376400	0.0454900	0.2336600	-0.2107600	0.0254200
33	0.5333333	0.3739800	1.1287000	-0.1468900	0.3883800	1.1323400	0.0362200	0.4762100	0.9243100	0.1858700	0.5904700	0.7543900	0.3573400	0.3703200	1.1232700	-0.3317000	0.4631800	0.9392500	-0.4946700	0.5616800	0.7591300	-0.6648900	0.3869500	0.5802200	-0.1313300	0.4048000	0.5855500	-0.0099200	0.3074600	0.2016200	0.0060500	0.2607100	-0.1819800	0.0229200	0.3750100	0.5753300	-0.2537500	0.2816800	0.2018500	-0.2549200	0.2305000	-0.1804000	-0.2775200	0.4059700	-0.2400300	-0.3369800	0.4005200	-0.2390200	-0.3356600	0.1942200	-0.2139800	-0.2645500	0.4449000	-0.2398700	0.0444600	0.4409200	-0.2376800	0.0455500	0.2337300	-0.2109200	0.0252200
34	0.5500000	0.3741700	1.1285400	-0.1469200	0.3885200	1.1321600	0.0362900	0.4763800	0.9241600	0.1859400	0.5904000	0.7543300	0.3572500	0.3705900	1.1231200	-0.3318500	0.4631500	0.9391500	-0.4949600	0.5616600	0.7591700	-0.6648800	0.3869800	0.5800100	-0.1313400	0.4048900	0.5852900	-0.0099100	0.3074200	0.2015900	0.0061500	0.2607600	-0.1819500	0.0229400	0.3751900	0.5751400	-0.2536800	0.2815900	0.2017800	-0.2549700	0.2305200	-0.1803100	-0.2774600	0.4058500	-0.2400900	-0.3370300	0.4004200	-0.2390600	-0.3357200	0.1942400	-0.2139300	-0.2645200	0.4448900	-0.2399200	0.0445400	0.4409200	-0.2377300	0.0456100	0.2337000	-0.2109100	0.0252700
35	0.5666667	0.3743600	1.1283100	-0.1469700	0.3886600	1.1319400	0.0363400	0.4765700	0.9239100	0.1859900	0.5903100	0.7543100	0.3572000	0.3708700	1.1228700	-0.3319600	0.4630800	0.9390700	-0.4952300	0.5616100	0.7592100	-0.6648400	0.3871200	0.5798400	-0.1313100	0.4049300	0.5850200	-0.0099100	0.3073800	0.2016000	0.0062100	0.2608000	-0.1819600	0.0229000	0.3753300	0.5750800	-0.2536700	0.2815800	0.2016100	-0.2549600	0.2305500	-0.1802400	-0.2773800	0.4058000	-0.2402000	-0.3371200	0.4004000	-0.2391700	-0.3358100	0.1942500	-0.2138500	-0.2644400	0.4448700	-0.2399900	0.0446200	0.4409300	-0.2378100	0.0456900	0.2336200	-0.2109000	0.0253000
36	0.5833333	0.3745500	1.1280900	-0.1470300	0.3888600	1.1316400	0.0363700	0.4768000	0.9235200	0.1860500	0.5903700	0.7540600	0.3570400	0.3711200	1.1226400	-0.3321200	0.4630200	0.9389500	-0.4954800	0.5615300	0.7592900	-0.6647900	0.3871500	0.5794900	-0.1312200	0.4047900	0.5847200	-0.0097600	0.3073200	0.2016600	0.0062300	0.2608200	-0.1819200	0.0228500	0.3755700	0.5748600	-0.2536100	0.2815900	0.2015300	-0.2549200	0.2306100	-0.1801300	-0.2773100	0.4057200	-0.2403100	-0.3372500	0.4003500	-0.2392800	-0.3359400	0.1941800	-0.2138400	-0.2641900	0.4449600	-0.2401600	0.0447000	0.4410600	-0.2379600	0.0457400	0.2336400	-0.2108500	0.0251600
37	0.6000000	0.3746600	1.1277600	-0.1470800	0.3889600	1.1313100	0.0362800	0.4769900	0.9232700	0.1861000	0.5902400	0.7540200	0.3570100	0.3713400	1.1223800	-0.3323300	0.4629100	0.9388500	-0.4955900	0.5614500	0.7593800	-0.6647400	0.3873300	0.5793600	-0.1312200	0.4048300	0.5844600	-0.0098300	0.3072800	0.2019400	0.0063500	0.2608400	-0.1818700	0.0227800	0.3756800	0.5749100	-0.2536100	0.2816000	0.2015500	-0.2548500	0.2306700	-0.1800300	-0.2772100	0.4056600	-0.2404200	-0.3374100	0.4003200	-0.2393900	-0.3361000	0.1943200	-0.2139200	-0.2638500	0.4450000	-0.2403700	0.0447700	0.4411100	-0.2381300	0.0457900	0.2333400	-0.2107300	0.0254000
38	0.6166667	0.3747400	1.1275400	-0.1471300	0.3890600	1.1310800	0.0363300	0.4771400	0.9230300	0.1861500	0.5900600	0.7539300	0.3569100	0.3714400	1.1221700	-0.3324800	0.4628000	0.9388000	-0.4957500	0.5613700	0.7595100	-0.6647300	0.3874300	0.5792600	-0.1312300	0.4048300	0.5842800	-0.0098800	0.3073000	0.2020800	0.0064000	0.2608600	-0.1817300	0.0227100	0.3758200	0.5749000	-0.2535900	0.2816000	0.2015400	-0.2547600	0.2307500	-0.1799400	-0.2771200	0.4055700	-0.2405400	-0.3376200	0.4002600	-0.2395000	-0.3363000	0.1944300	-0.2138400	-0.2637200	0.4450200	-0.2404800	0.0448400	0.4411500	-0.2382400	0.0458500	0.2332100	-0.2108200	0.0251000
39	0.6333333	0.3747800	1.1273800	-0.1472100	0.3891000	1.1309200	0.0363400	0.4772200	0.9228800	0.1861600	0.5898900	0.7538800	0.3568000	0.3714400	1.1220100	-0.3326600	0.4627400	0.9387000	-0.4958400	0.5613100	0.7595400	-0.6647400	0.3874900	0.5792700	-0.1312800	0.4049500	0.5842400	-0.0099800	0.3074100	0.2022200	0.0065400	0.2609100	-0.1816300	0.0226200	0.3759300	0.5749200	-0.2535600	0.2815800	0.2015700	-0.2546800	0.2308200	-0.1798900	-0.2770600	0.4054800	-0.2406200	-0.3378000	0.4002000	-0.2395700	-0.3364700	0.1944900	-0.2137200	-0.2636300	0.4450400	-0.2405700	0.0448900	0.4411900	-0.2383300	0.0458800	0.2331600	-0.2107400	0.0248800
40	0.6500000	0.3747700	1.1272400	-0.1473000	0.3891700	1.1308300	0.0363200	0.4772300	0.9227800	0.1861400	0.5896700	0.7538800	0.3566500	0.3714200	1.1218000	-0.3328200	0.4626500	0.9386600	-0.4958700	0.5612600	0.7595200	-0.6647800	0.3875400	0.5794400	-0.1312500	0.4049900	0.5843500	-0.0099700	0.3075400	0.2022900	0.0067800	0.2609300	-0.1814500	0.0225900	0.3759500	0.5751400	-0.2535400	0.2815300	0.2015200	-0.2546200	0.2308700	-0.1798100	-0.2770200	0.4054100	-0.2406700	-0.3379500	0.4001700	-0.2396300	-0.3366200	0.1946100	-0.2136400	-0.2635100	0.4450600	-0.2406100	0.0449000	0.4412200	-0.2383700	0.0458800	0.2331200	-0.2105500	0.0247800
